<svg width="28" height="27" viewBox="0 0 28 27" fill="none" xmlns="http://www.w3.org/2000/svg">
<path d="M26.2785 0H1.41547C0.817545 0 0.334473 0.482625 0.334473 1.08V25.92C0.334473 26.5174 0.817545 27 1.41547 27H26.2785C26.8764 27 27.3595 26.5174 27.3595 25.92V1.08C27.3595 0.482625 26.8764 0 26.2785 0ZM25.1975 24.84H18.9784V16.5443H22.4916L23.0186 12.4706H18.9784V9.8685C18.9784 8.68725 19.306 7.884 20.9985 7.884H23.1571V4.239C22.7821 4.18838 21.5018 4.077 20.0087 4.077C16.8941 4.077 14.7625 5.97712 14.7625 9.4635V12.4672H11.2424V16.5409H14.7658V24.84H2.49647V2.16H25.1975V24.84Z" fill="#E3D5D5"/>
</svg>
