<svg width="28" height="27" viewBox="0 0 28 27" fill="none" xmlns="http://www.w3.org/2000/svg">
<path d="M13.7989 6.57319C9.96222 6.57319 6.86582 9.66679 6.86582 13.5C6.86582 17.3332 9.96222 20.4268 13.7989 20.4268C17.6356 20.4268 20.732 17.3332 20.732 13.5C20.732 9.66679 17.6356 6.57319 13.7989 6.57319ZM13.7989 18.0019C11.3177 18.0019 9.29291 15.9789 9.29291 13.5C9.29291 11.0211 11.3177 8.99808 13.7989 8.99808C16.2801 8.99808 18.3049 11.0211 18.3049 13.5C18.3049 15.9789 16.2801 18.0019 13.7989 18.0019ZM21.016 4.67516C20.1202 4.67516 19.3968 5.3979 19.3968 6.29288C19.3968 7.18786 20.1202 7.9106 21.016 7.9106C21.9118 7.9106 22.6352 7.19124 22.6352 6.29288C22.6354 6.08036 22.5937 5.86988 22.5124 5.67349C22.4312 5.4771 22.3119 5.29866 22.1615 5.14839C22.0111 4.99811 21.8325 4.87896 21.6359 4.79776C21.4393 4.71656 21.2287 4.6749 21.016 4.67516ZM27.3136 13.5C27.3136 11.6357 27.3305 9.78837 27.2257 7.92748C27.1209 5.76602 26.6273 3.84773 25.0453 2.26716C23.46 0.683215 21.5433 0.19351 19.3799 0.0888138C17.5139 -0.0158819 15.6649 0.00100455 13.8023 0.00100455C11.9363 0.00100455 10.0873 -0.0158819 8.22472 0.0888138C6.0613 0.19351 4.14126 0.686593 2.55926 2.26716C0.973875 3.85111 0.483724 5.76602 0.378934 7.92748C0.274143 9.79174 0.291045 11.6391 0.291045 13.5C0.291045 15.3609 0.274143 17.2116 0.378934 19.0725C0.483724 21.234 0.977255 23.1523 2.55926 24.7328C4.14464 26.3168 6.0613 26.8065 8.22472 26.9112C10.0907 27.0159 11.9397 26.999 13.8023 26.999C15.6683 26.999 17.5173 27.0159 19.3799 26.9112C21.5433 26.8065 23.4633 26.3134 25.0453 24.7328C26.6307 23.1489 27.1209 21.234 27.2257 19.0725C27.3338 17.2116 27.3136 15.3643 27.3136 13.5ZM24.3388 21.4636C24.0921 22.0783 23.7946 22.5376 23.318 23.0104C22.8414 23.4866 22.385 23.7838 21.7698 24.0304C19.9917 24.7362 15.7697 24.5775 13.7989 24.5775C11.8282 24.5775 7.60274 24.7362 5.82468 24.0337C5.20945 23.7872 4.74972 23.49 4.27648 23.0138C3.79985 22.5376 3.50238 22.0817 3.25561 21.467C2.5525 19.6872 2.71137 15.469 2.71137 13.5C2.71137 11.531 2.5525 7.30944 3.25561 5.53299C3.50238 4.91833 3.79985 4.45902 4.27648 3.9862C4.75311 3.51338 5.20945 3.2128 5.82468 2.96626C7.60274 2.26378 11.8282 2.42252 13.7989 2.42252C15.7697 2.42252 19.9951 2.26378 21.7732 2.96626C22.3884 3.2128 22.8481 3.51 23.3214 3.9862C23.798 4.46239 24.0955 4.91833 24.3422 5.53299C25.0453 7.30944 24.8865 11.531 24.8865 13.5C24.8865 15.469 25.0453 19.6872 24.3388 21.4636Z" fill="#E3D5D5"/>
</svg>
