<svg viewBox="0 0 83 55" fill="none" xmlns="http://www.w3.org/2000/svg">
<path d="M30.3885 8.73768C30.3003 8.0296 30.4517 7.73681 31.2715 7.49711C30.7951 7.27901 30.6132 7.13894 30.5651 6.83252C30.8366 6.06535 31.4027 5.95871 32.6402 5.9464C32.223 5.33905 32.038 5.04697 31.9779 4.79444C32.3113 4.31834 32.7611 4.34145 33.6556 4.4843C32.9937 3.86268 32.6917 3.53656 32.6402 3.11081C32.9812 2.76199 33.5633 2.89693 34.7594 3.28803C33.6118 1.96659 32.9088 1.33543 33.1258 1.07272C35.3587 0.284045 44.4988 6.07537 44.3841 10.4656C47.0913 13.6241 46.9505 15.6336 43.6777 19.637C43.0596 23.7574 43.5375 26.527 44.4724 28.1437C46.3008 30.0008 47.5188 31.1912 49.9912 32.4857C51.0066 33.0174 52.416 33.1977 54.0088 33.3275C56.6413 33.5939 58.4882 33.1748 62.4856 31.3338C64.2075 30.7135 66.107 31.099 68.0927 32.9731C76.6675 33.9892 79.5362 35.0739 82 37.7138C78.3141 35.4074 75.0968 34.922 67.4305 35.4099C65.5725 36.2368 63.8485 36.1244 60.3223 35.5428C56.6086 36.5952 54.4066 36.7239 50.2561 36.1188C47.6404 35.7389 46.5294 36.1467 44.8256 37.3594C42.5112 39.946 40.6957 40.4882 36.7903 40.2836C35.1355 39.8322 34.1579 39.6579 32.2428 39.619C30.6997 38.5627 29.8289 38.2134 28.2693 38.0683C22.954 38.2063 20.5279 38.0454 18.1589 36.9163M30.3885 8.73768C35.068 11.5307 36.4813 12.5625 36.3929 13.2569C35.331 18.7895 36.6349 24.5207 40.3223 28.1437M30.3885 8.73768C29.8623 6.3528 17.499 4.1625 9.19647 3.81971C8.67319 4.02914 9.75225 4.43296 12.5077 5.32611C9.68602 5.08191 2.67426 5.44948 11.0066 6.30084C3.5195 7.11805 4.67174 7.36574 10.1236 7.67433C3.22403 8.30824 3.39081 8.63559 9.54967 9.18074C6.76257 9.529 6.58709 9.82239 9.19647 10.5542C8.11633 10.8681 8.0448 11.1409 9.81457 11.972C9.06522 12.823 9.50392 13.195 11.2274 13.7443C11.0016 14.8686 11.197 15.359 12.6843 15.738C11.9382 16.6355 11.6757 17.0886 12.6843 17.4217C12.2864 18.733 12.5413 18.9917 13.5673 18.8838C12.6057 20.2673 12.4695 20.6929 13.3466 20.4788C13.1294 21.7065 13.3409 21.759 13.7881 21.7194C13.5445 22.951 13.7582 23.1304 14.6269 22.7384C14.5415 24.3704 14.7614 24.7889 15.6865 24.6879C15.4623 26.349 15.8304 26.5619 16.8786 26.3715C16.6635 27.9188 16.8255 28.4552 18.1589 28.188C17.6904 29.7771 17.9074 30.1476 19.1302 29.916C18.7758 31.2938 18.9817 31.7007 20.4106 31.4667C20.1607 32.0592 20.0366 32.5163 20.0748 32.8845M18.1589 36.9163C18.3282 36.7479 19.289 36.7416 22.3974 36.6948C23.2216 36.6129 23.6981 36.4548 24.5607 36.0745C21.9117 36.6948 19.8439 36.1671 18.1589 36.2325C14.5746 36.3718 12.7891 36.5834 11.3157 36.9606M18.1589 36.9163L11.3157 36.9606M18.1589 36.9163L11.4481 37.6695C10.9249 38.1477 10.1719 38.2264 8.53422 38.2455C7.8568 38.7374 7.51785 38.9135 6.98896 39.043C5.96804 38.9958 5.40583 38.9844 4.51656 39.1316C2.87493 39.3824 2.16064 39.3362 2 38.2455C2.18625 37.4636 2.32987 37.4189 2.66225 38.1126L4.42826 37.9797C4.58426 37.3849 5.09782 37.2819 6.41501 37.3151C7.54514 36.8554 8.14174 36.7756 9.06402 37.3151C9.47465 36.9096 9.71487 36.7238 10.3002 37.0493L11.3157 36.9606M20.0748 32.8845C20.1366 33.4799 20.6234 33.8426 21.6909 34.1694L20.0748 32.8845ZM20.0748 32.8845C13.654 34.7684 11.1724 35.7159 11.3157 36.9606M20.0748 32.8845L11.3157 36.9606" stroke="#B44040" stroke-width="2"/>
<path d="M4.12747 53.0992V43.3466C4.12747 43.1044 4.08435 42.9226 3.99813 42.8015C3.9119 42.6746 3.80267 42.5852 3.67045 42.5333C3.54397 42.4756 3.40601 42.4438 3.25654 42.4381C3.10707 42.4323 2.96623 42.4265 2.83401 42.4207C2.70754 42.4092 2.60119 42.3862 2.51496 42.3515C2.42873 42.3169 2.38562 42.2448 2.38562 42.1352C2.38562 42.0602 2.42011 42.014 2.4891 41.9967C2.56382 41.9737 2.63281 41.9621 2.69605 41.9621H3.17893C3.32265 41.9621 3.452 41.9679 3.56698 41.9794C3.68769 41.9852 3.7998 41.9939 3.90328 42.0054C4.0125 42.0169 4.12172 42.0284 4.23095 42.0399C4.34593 42.0458 4.4724 42.0486 4.61037 42.0486C4.89205 42.0486 5.13925 42.0429 5.35195 42.0314C5.56466 42.014 5.76873 41.9967 5.96419 41.9794C6.15964 41.9621 6.3551 41.9477 6.55055 41.9362C6.74601 41.9188 6.96446 41.9102 7.20591 41.9102H7.78366C7.86413 41.9102 7.93025 41.9275 7.98199 41.9621C8.03372 41.9909 8.07396 42.0082 8.1027 42.014C8.12571 42.0775 8.14007 42.1121 8.14582 42.1178C8.15157 42.1236 8.15445 42.1496 8.15445 42.1957C8.15445 42.2592 8.1027 42.3111 7.99923 42.3515C7.9015 42.3919 7.78653 42.4265 7.65431 42.4554C7.52783 42.4784 7.39849 42.4986 7.26627 42.516C7.13405 42.5275 7.0392 42.5419 6.98171 42.5592C6.88973 42.5765 6.792 42.5938 6.68852 42.6111C6.58505 42.6227 6.49019 42.6457 6.40397 42.6803C6.31773 42.7091 6.24587 42.7553 6.18839 42.8188C6.1309 42.8765 6.10216 42.9602 6.10216 43.0697V53.3501C6.10216 53.4713 6.14527 53.5664 6.2315 53.6357C6.32348 53.6992 6.43558 53.7482 6.5678 53.7828C6.70002 53.8116 6.84374 53.8318 6.99895 53.8433C7.15992 53.8549 7.30651 53.8693 7.43873 53.8867C7.57095 53.904 7.68018 53.9327 7.76641 53.9732C7.85839 54.0078 7.90438 54.0655 7.90438 54.1462C7.90438 54.2097 7.88713 54.2501 7.85264 54.2673C7.81815 54.2847 7.78653 54.2992 7.75779 54.3107C7.6773 54.3337 7.57958 54.3539 7.4646 54.3712C7.34963 54.3886 7.24903 54.3972 7.16279 54.3972C6.95584 54.3972 6.76613 54.3914 6.59367 54.3799C6.42121 54.3684 6.2545 54.3568 6.09353 54.3452C5.93257 54.3337 5.7716 54.3222 5.61064 54.3107C5.44968 54.2992 5.27434 54.2933 5.08464 54.2933C4.99266 54.2933 4.86331 54.2962 4.69659 54.302C4.53563 54.3078 4.36029 54.3164 4.17059 54.328C3.98663 54.3337 3.80267 54.3395 3.61871 54.3452C3.43476 54.351 3.27666 54.3539 3.14444 54.3539H2.46322C2.43448 54.3539 2.39424 54.3395 2.3425 54.3107C2.29076 54.2818 2.26489 54.2356 2.26489 54.1722C2.26489 54.0568 2.31376 53.9876 2.41148 53.9645C2.53796 53.9299 2.65006 53.904 2.74779 53.8867C2.85126 53.8635 2.95762 53.8433 3.06684 53.8261C3.17606 53.803 3.29679 53.7799 3.42901 53.7569C3.56123 53.7337 3.72506 53.702 3.92052 53.6617C4.01824 53.6328 4.07574 53.5693 4.09298 53.4713C4.11597 53.3732 4.12747 53.2492 4.12747 53.0992ZM10.4568 53.2203C10.3763 53.2203 10.3188 53.2693 10.2843 53.3674C10.2499 53.4655 10.2182 53.5751 10.1895 53.6962C10.1607 53.8116 10.1234 53.9184 10.0774 54.0164C10.0372 54.1145 9.96817 54.1636 9.87044 54.1636V44.2033C9.87044 43.8861 9.79858 43.6294 9.65486 43.4332C9.51689 43.2312 9.29269 43.1303 8.98226 43.1303C8.85004 43.1303 8.73507 43.1361 8.63734 43.1476C8.54536 43.1592 8.42176 43.1765 8.26655 43.1995L8.2493 43.113C8.2493 43.0438 8.26942 42.9977 8.30966 42.9745C8.34415 42.9515 8.39877 42.9169 8.4735 42.8707C8.55398 42.8246 8.65171 42.787 8.76669 42.7582C8.88166 42.7293 8.99951 42.7063 9.12023 42.689C9.2467 42.6659 9.3703 42.6457 9.49102 42.6284C9.61175 42.6111 9.72097 42.588 9.8187 42.5592C9.92792 42.5303 10.04 42.49 10.155 42.4381C10.27 42.3804 10.3849 42.3255 10.5 42.2736C10.6149 42.2159 10.7299 42.1669 10.8449 42.1265C10.9656 42.0861 11.0834 42.0659 11.1984 42.0659C11.3191 42.0659 11.3795 42.1208 11.3795 42.2304V46.9898C11.3795 47.0879 11.3996 47.1369 11.4398 47.1369C11.4686 47.1369 11.5117 47.1254 11.5692 47.1023C11.6267 47.0735 11.6698 47.0561 11.6985 47.0503C11.917 46.883 12.1067 46.7446 12.2676 46.635C12.4343 46.5196 12.5953 46.4215 12.7505 46.3408C12.8195 46.3119 12.9259 46.2831 13.0696 46.2542C13.2191 46.2254 13.403 46.211 13.6215 46.211C14.2308 46.211 14.7626 46.3408 15.2168 46.6004C15.6766 46.8542 16.0561 47.1917 16.355 47.6128C16.6597 48.034 16.8867 48.5157 17.0362 49.058C17.1857 49.5945 17.2604 50.1425 17.2604 50.7021C17.2604 51.0482 17.1885 51.3945 17.0449 51.7406C16.9068 52.0809 16.72 52.404 16.4843 52.7097C16.2486 53.0098 15.9784 53.2809 15.6737 53.5232C15.3748 53.7654 15.0615 53.9587 14.7339 54.103C14.5154 54.1895 14.3027 54.2472 14.0957 54.276C13.8946 54.2992 13.6761 54.3107 13.4403 54.3107C13.0897 54.3107 12.7448 54.2818 12.4056 54.2241C12.0665 54.1607 11.7388 54.0655 11.4226 53.9385C11.2846 53.8751 11.1467 53.7914 11.0086 53.6876C10.8765 53.5838 10.7615 53.4828 10.6637 53.3847C10.6408 53.3559 10.6177 53.3212 10.5948 53.2809C10.5718 53.2405 10.5258 53.2203 10.4568 53.2203ZM11.3105 52.4068C11.3105 52.5799 11.3766 52.7646 11.5088 52.9607C11.6411 53.1511 11.802 53.327 11.9917 53.4885C12.1815 53.6443 12.3798 53.7771 12.5867 53.8867C12.7994 53.9904 12.9834 54.0424 13.1386 54.0424C13.5007 54.0424 13.8198 53.9674 14.0957 53.8174C14.3717 53.6617 14.6102 53.4511 14.8115 53.1857C15.0874 52.8568 15.303 52.4905 15.4582 52.0867C15.6134 51.6829 15.691 51.2358 15.691 50.7454C15.691 50.3762 15.6652 50.0214 15.6134 49.6811C15.5617 49.3407 15.4668 49.0176 15.3288 48.7118C15.1909 48.4061 15.0011 48.1234 14.7597 47.8638C14.5241 47.5984 14.2193 47.3561 13.8456 47.1369C13.7595 47.0907 13.6789 47.0503 13.6042 47.0158C13.5353 46.9754 13.4634 46.9436 13.3887 46.9206C13.3139 46.8975 13.2335 46.8802 13.1472 46.8687C13.061 46.8571 12.9633 46.8513 12.854 46.8513C12.6643 46.8513 12.4947 46.8687 12.3452 46.9032C12.2016 46.9379 12.0693 46.9927 11.9486 47.0677C11.8336 47.1369 11.7244 47.2292 11.6209 47.3446C11.5232 47.46 11.4197 47.5956 11.3105 47.7513V52.4068ZM18.3297 54.1895C18.3297 54.1607 18.3325 54.1174 18.3383 54.0597C18.3498 53.9963 18.3872 53.9645 18.4504 53.9645H19.4507C19.5024 53.9645 19.557 53.9472 19.6145 53.9126C19.672 53.878 19.7007 53.8318 19.7007 53.7741V48.6513C19.7007 48.3801 19.6921 48.1436 19.6749 47.9417C19.6577 47.7397 19.603 47.5869 19.511 47.483C19.4708 47.4196 19.4305 47.3792 19.3903 47.3619C19.3558 47.3446 19.3271 47.3302 19.3041 47.3187C19.2753 47.3071 19.2437 47.2985 19.2093 47.2927C19.1805 47.2869 19.146 47.284 19.1058 47.284H18.9247C18.8097 47.284 18.6717 47.2869 18.5107 47.2927C18.3498 47.2985 18.2147 47.3071 18.1055 47.3187C18.0825 47.3187 18.0566 47.3157 18.0279 47.31C17.9991 47.2984 17.9847 47.2812 17.9847 47.258C17.9847 47.1946 17.9963 47.1571 18.0192 47.1456C18.0479 47.134 18.0825 47.1167 18.1227 47.0937C18.3469 47.0186 18.5913 46.9552 18.8557 46.9032C19.1201 46.8456 19.3731 46.785 19.6145 46.7215C19.6318 46.7215 19.6691 46.7129 19.7266 46.6955C19.7898 46.6725 19.8531 46.6495 19.9163 46.6263C19.9853 46.6033 20.0514 46.5802 20.1146 46.5571C20.1779 46.5341 20.2238 46.5167 20.2526 46.5052C20.3273 46.4822 20.4021 46.4504 20.4768 46.41C20.5573 46.3639 20.6378 46.3206 20.7182 46.2802C20.7988 46.2398 20.8764 46.2052 20.9511 46.1764C21.0316 46.1476 21.112 46.1331 21.1925 46.1331C21.2213 46.1331 21.2471 46.1476 21.2701 46.1764C21.2989 46.2052 21.3133 46.2456 21.3133 46.2975V51.9136C21.3133 52.1213 21.3075 52.2944 21.296 52.4328C21.2902 52.5655 21.2817 52.6895 21.2701 52.805C21.2586 52.9146 21.2471 53.027 21.2357 53.1424C21.2299 53.252 21.227 53.3876 21.227 53.5491C21.227 53.7164 21.2442 53.829 21.2788 53.8867C21.319 53.9385 21.4311 53.9645 21.6151 53.9645C21.6783 53.9645 21.7761 53.9587 21.9083 53.9472C22.0404 53.9299 22.1526 53.9212 22.2445 53.9212C22.2905 53.9212 22.3394 53.927 22.3912 53.9385C22.4486 53.9444 22.5004 53.9587 22.5463 53.9818C22.5981 54.0049 22.6383 54.0366 22.6671 54.077C22.7015 54.1174 22.7189 54.1693 22.7189 54.2328C22.7189 54.2732 22.7102 54.3078 22.693 54.3366C22.6814 54.3654 22.6498 54.3799 22.5981 54.3799C22.1785 54.3799 21.799 54.3741 21.4599 54.3626C21.1264 54.3568 20.8102 54.3539 20.5113 54.3539C19.9996 54.3539 19.5858 54.377 19.2696 54.4231C18.9534 54.4693 18.7292 54.4923 18.597 54.4923C18.4188 54.4923 18.3297 54.3914 18.3297 54.1895ZM19.511 42.8447C19.511 42.689 19.5398 42.5563 19.5973 42.4467C19.6547 42.3313 19.7294 42.2391 19.8215 42.1698C19.9192 42.0948 20.0313 42.0429 20.1578 42.014C20.2842 41.9794 20.4164 41.9621 20.5544 41.9621C20.6809 41.9621 20.8016 41.9852 20.9166 42.0314C21.0316 42.0775 21.1322 42.141 21.2184 42.2217C21.3046 42.3025 21.3708 42.3977 21.4168 42.5073C21.4684 42.6169 21.4943 42.7323 21.4943 42.8534C21.4943 43.0092 21.4684 43.1448 21.4168 43.2601C21.365 43.3697 21.2932 43.4592 21.2011 43.5284C21.1091 43.5977 20.9999 43.6495 20.8735 43.6841C20.7528 43.713 20.6206 43.7274 20.4768 43.7274C20.1779 43.7274 19.9422 43.6582 19.7697 43.5198C19.5973 43.3813 19.511 43.1563 19.511 42.8447ZM23.6156 53.1079C23.6156 52.9521 23.6501 52.7991 23.7191 52.6492C23.7938 52.4934 23.8485 52.3492 23.8829 52.2165C23.8829 52.1934 23.8887 52.1473 23.9001 52.078C23.9174 52.003 23.9347 51.9252 23.9519 51.8444C23.9749 51.7579 23.9951 51.68 24.0123 51.6108C24.0295 51.5416 24.0411 51.4925 24.0468 51.4637C24.064 51.3828 24.1043 51.3425 24.1675 51.3425C24.2595 51.3425 24.3083 51.3973 24.3141 51.5069C24.3256 51.5877 24.3285 51.6655 24.3227 51.7406C24.3227 51.8098 24.3313 51.8934 24.3486 51.9915C24.4004 52.2627 24.4721 52.5194 24.5641 52.7616C24.6619 52.9982 24.7855 53.2088 24.9349 53.3934C25.0902 53.5779 25.2741 53.7251 25.4868 53.8347C25.7053 53.9385 25.9611 53.9904 26.2543 53.9904C26.467 53.9904 26.6711 53.9587 26.8665 53.8953C27.062 53.8261 27.2344 53.7309 27.3839 53.6098C27.5391 53.4885 27.6599 53.3386 27.746 53.1597C27.8381 52.9809 27.8841 52.779 27.8841 52.554C27.8841 52.2021 27.8208 51.9136 27.6943 51.6886C27.5736 51.4637 27.4126 51.2762 27.2114 51.1261C27.016 50.9762 26.7889 50.855 26.5302 50.7627C26.2773 50.6646 26.0157 50.5723 25.7455 50.4858C25.4811 50.3935 25.2195 50.2954 24.9608 50.1916C24.7079 50.082 24.4808 49.9407 24.2796 49.7675C24.0841 49.5887 23.9232 49.3667 23.7967 49.1013C23.6759 48.8359 23.6156 48.5013 23.6156 48.0975C23.6156 47.8494 23.6587 47.6359 23.745 47.4571C23.8312 47.2725 23.9088 47.1254 23.9777 47.0158C24.064 46.883 24.1732 46.7504 24.3054 46.6177C24.4377 46.4792 24.59 46.3581 24.7625 46.2542C24.9349 46.1446 25.1275 46.0552 25.3402 45.986C25.5587 45.9167 25.7943 45.8822 26.0473 45.8822C26.2715 45.8822 26.5129 45.9283 26.7717 46.0206C27.0361 46.1072 27.266 46.2312 27.4615 46.3927C27.5248 46.4446 27.588 46.5023 27.6512 46.5658C27.7144 46.6293 27.7777 46.661 27.8409 46.661C27.9214 46.661 27.9875 46.635 28.0393 46.5831C28.0909 46.5254 28.1427 46.4504 28.1944 46.3581C28.206 46.3466 28.2175 46.3408 28.229 46.3408C28.2462 46.335 28.2606 46.3321 28.2721 46.3321C28.2894 46.3321 28.3008 46.3494 28.3066 46.3841C28.3181 46.4129 28.3267 46.4475 28.3324 46.4879C28.3439 46.5225 28.3497 46.56 28.3497 46.6004C28.3554 46.635 28.3583 46.661 28.3583 46.6783C28.3583 46.6955 28.3497 46.7533 28.3324 46.8513C28.321 46.9494 28.3008 47.0677 28.2721 47.2061C28.2491 47.3389 28.2203 47.483 28.1859 47.6388C28.1571 47.7888 28.1226 47.9302 28.0824 48.0628C28.0479 48.1897 28.0105 48.2965 27.9702 48.383C27.9358 48.4695 27.9013 48.5128 27.8668 48.5128C27.8553 48.5128 27.8438 48.51 27.8323 48.5042C27.8093 48.4926 27.7978 48.4811 27.7978 48.4695C27.7518 48.3888 27.7202 48.3195 27.703 48.2618C27.6857 48.2042 27.6713 48.1494 27.6599 48.0975C27.6541 48.0455 27.6483 47.9936 27.6426 47.9417C27.6426 47.884 27.634 47.8206 27.6167 47.7513C27.6052 47.7052 27.5937 47.6619 27.5822 47.6215C27.5708 47.5754 27.5564 47.535 27.5391 47.5003C27.4644 47.31 27.3868 47.1542 27.3063 47.0331C27.2258 46.9119 27.1137 46.7879 26.97 46.661C26.8722 46.5629 26.7831 46.4879 26.7027 46.436C26.6279 46.3783 26.5475 46.3379 26.4612 46.3149C26.375 46.286 26.2744 46.2687 26.1594 46.2629C26.0444 46.2572 25.9036 46.2542 25.7369 46.2542C25.5759 46.2542 25.4265 46.2917 25.2885 46.3668C25.1563 46.436 25.0413 46.5312 24.9436 46.6523C24.8458 46.7734 24.7682 46.9148 24.7107 47.0763C24.659 47.2321 24.6331 47.3965 24.6331 47.5696C24.6331 47.858 24.6935 48.0945 24.8142 48.2792C24.9407 48.458 25.1045 48.6109 25.3057 48.7378C25.5127 48.859 25.7455 48.9628 26.0042 49.0493C26.2629 49.1359 26.5245 49.2253 26.7889 49.3176C27.0591 49.4099 27.3235 49.5195 27.5822 49.6464C27.8409 49.7675 28.0709 49.9291 28.2721 50.131C28.479 50.3272 28.6428 50.5752 28.7636 50.8752C28.8901 51.1694 28.9533 51.5358 28.9533 51.9742C28.9533 52.2627 28.8786 52.554 28.7291 52.8482C28.5796 53.1367 28.3957 53.4078 28.1772 53.6617C28.0795 53.7771 27.9473 53.8837 27.7806 53.9818C27.6196 54.0741 27.4385 54.1549 27.2373 54.2241C27.0419 54.2933 26.8349 54.3452 26.6164 54.3799C26.4037 54.4203 26.1939 54.4405 25.9869 54.4405C25.78 54.4405 25.5415 54.3943 25.2713 54.302C25.0011 54.2097 24.7423 54.0943 24.4952 53.9559C24.2479 53.8174 24.0381 53.6732 23.8657 53.5232C23.699 53.3674 23.6156 53.229 23.6156 53.1079ZM34.2651 45.086C34.2651 44.7976 34.3111 44.5062 34.4031 44.212C34.5008 43.9178 34.6301 43.6409 34.7911 43.3813C34.9521 43.1159 35.1389 42.8765 35.3516 42.6631C35.5701 42.4438 35.8 42.2679 36.0414 42.1352C36.2714 42.0025 36.5042 41.9217 36.74 41.8929C36.9814 41.8641 37.2401 41.8496 37.516 41.8496C37.8264 41.8496 38.1311 41.8871 38.43 41.9621C38.729 42.0314 39.0192 42.141 39.301 42.2909C39.324 42.3083 39.3671 42.3371 39.4303 42.3775C39.4936 42.4179 39.5626 42.4669 39.6373 42.5246C39.7178 42.5823 39.7982 42.6429 39.8788 42.7063C39.9592 42.764 40.0311 42.8188 40.0943 42.8707C40.1173 42.8938 40.1374 42.9053 40.1547 42.9053C40.1604 42.9053 40.1747 42.8938 40.1978 42.8707C40.215 42.8476 40.2351 42.813 40.2581 42.7669C40.2869 42.715 40.3156 42.6631 40.3444 42.6111C40.3731 42.5535 40.3989 42.5015 40.422 42.4554C40.4507 42.4034 40.4708 42.3688 40.4823 42.3515C40.4939 42.3227 40.5082 42.2967 40.5255 42.2736C40.5484 42.2506 40.5628 42.2391 40.5686 42.2391C40.5686 42.2332 40.58 42.2304 40.6031 42.2304C40.6375 42.2304 40.6634 42.2448 40.6807 42.2736C40.6979 42.2967 40.7094 42.3255 40.7151 42.3602C40.7266 42.3948 40.7325 42.4323 40.7325 42.4726C40.7325 42.5073 40.7325 42.5361 40.7325 42.5592V42.6197C40.7325 42.6313 40.7295 42.6544 40.7238 42.689C40.7238 42.7236 40.7209 42.764 40.7151 42.8102C40.7094 42.8506 40.7037 42.8881 40.6979 42.9226C40.6979 42.9573 40.695 42.9803 40.6893 42.9919V45.1293C40.6893 45.1755 40.6691 45.2072 40.629 45.2245C40.5887 45.2418 40.5542 45.2505 40.5255 45.2505C40.4623 45.2505 40.4248 45.2389 40.4133 45.2158C40.4019 45.187 40.3846 45.1379 40.3616 45.0687C40.2984 44.9187 40.2553 44.7658 40.2322 44.6101C40.215 44.4485 40.1747 44.2841 40.1115 44.1168C40.0483 43.9264 39.942 43.7216 39.7925 43.5024C39.643 43.2774 39.4706 43.0697 39.2751 42.8794C39.0796 42.689 38.8756 42.5303 38.6629 42.4034C38.4502 42.2765 38.2461 42.2131 38.0506 42.2131C37.6885 42.2131 37.4096 42.2391 37.2142 42.2909C36.921 42.3775 36.6738 42.5188 36.4726 42.715C36.2772 42.9053 36.0961 43.1216 35.9294 43.364C35.8834 43.4332 35.8403 43.5226 35.8 43.6322C35.7597 43.7361 35.7253 43.8486 35.6965 43.9697C35.6736 44.0851 35.6534 44.1976 35.6362 44.3072C35.6246 44.4168 35.6189 44.5062 35.6189 44.5755C35.6189 44.8524 35.6764 45.1034 35.7913 45.3283C35.9121 45.5533 36.0673 45.7552 36.257 45.9341C36.4467 46.1072 36.6594 46.2629 36.8951 46.4013C37.1366 46.5341 37.378 46.6495 37.6195 46.7475C37.8264 46.834 38.0391 46.9177 38.2576 46.9984C38.4818 47.0792 38.7002 47.1629 38.9129 47.2494C39.1314 47.3359 39.3384 47.4311 39.5338 47.535C39.735 47.6388 39.9132 47.7571 40.0684 47.8898C40.2639 48.0455 40.4564 48.2388 40.6462 48.4695C40.8358 48.6945 41.0055 48.9426 41.155 49.2137C41.3101 49.4791 41.4337 49.756 41.5257 50.0444C41.6178 50.333 41.6637 50.6156 41.6637 50.8926C41.6637 51.429 41.5688 51.9136 41.3792 52.3463C41.1951 52.779 40.9365 53.1482 40.6031 53.454C40.2754 53.7539 39.8873 53.9876 39.4389 54.1549C38.9906 54.3164 38.5076 54.3972 37.9903 54.3972C37.6856 54.3972 37.3895 54.3828 37.1021 54.3539C36.8204 54.3193 36.5502 54.2616 36.2916 54.1809C36.0328 54.1 35.7885 53.9876 35.5586 53.8433C35.3287 53.6992 35.1102 53.5145 34.9032 53.2895C34.8802 53.2607 34.8486 53.2433 34.8084 53.2376C34.7739 53.2318 34.7452 53.229 34.7221 53.229C34.6244 53.229 34.5554 53.255 34.5151 53.3069C34.475 53.3588 34.4404 53.4193 34.4117 53.4885C34.3887 53.5521 34.36 53.6098 34.3255 53.6617C34.291 53.7135 34.2306 53.7395 34.1444 53.7395L34.3686 51.3598C34.38 51.2848 34.3887 51.1953 34.3944 51.0916C34.4002 50.9877 34.4146 50.9184 34.4375 50.8839C34.4548 50.8031 34.4864 50.7627 34.5325 50.7627C34.6014 50.7627 34.6502 50.806 34.679 50.8926C34.7135 50.9906 34.7423 51.0887 34.7652 51.1867C34.7883 51.279 34.8084 51.3713 34.8256 51.4637C34.8428 51.5559 34.8601 51.6425 34.8773 51.7232C34.9003 51.804 34.9291 51.8762 34.9635 51.9396C35.0958 52.1761 35.2223 52.3866 35.343 52.5713C35.4695 52.7559 35.6074 52.9261 35.7569 53.0819C35.9121 53.2376 36.0903 53.3789 36.2916 53.5059C36.4927 53.6328 36.737 53.7511 37.0245 53.8607C37.2027 53.9242 37.3723 53.9616 37.5332 53.9732C37.6942 53.9789 37.8408 53.9818 37.9731 53.9818C38.1339 53.9818 38.2949 53.953 38.4559 53.8953C38.6169 53.8318 38.8095 53.7367 39.0336 53.6098C39.3613 53.4136 39.6229 53.1799 39.8184 52.9087C40.0138 52.6318 40.1115 52.2857 40.1115 51.8704C40.1115 51.5761 40.057 51.3021 39.9477 51.0482C39.8442 50.7945 39.7005 50.558 39.5166 50.3387C39.2521 50.0445 38.9992 49.8166 38.7577 49.6551C38.5163 49.4878 38.2777 49.355 38.042 49.257C37.8121 49.1589 37.5821 49.0753 37.3521 49.0061C37.1222 48.9368 36.8865 48.8503 36.645 48.7465C36.4094 48.6426 36.1679 48.5042 35.9207 48.331C35.6736 48.158 35.4148 47.9157 35.1446 47.6042C34.5583 46.9119 34.2651 46.0725 34.2651 45.086ZM43.8712 51.9396C43.8712 51.1204 43.8913 50.3156 43.9316 49.5253C43.9718 48.7292 43.9977 47.9186 44.0092 47.0937C43.785 47.0937 43.5694 47.1109 43.3625 47.1456C43.1612 47.1802 42.96 47.1975 42.7589 47.1975C42.6956 47.1975 42.6323 47.1917 42.5691 47.1802C42.5059 47.1686 42.4743 47.1282 42.4743 47.059C42.4743 47.036 42.48 47.0186 42.4915 47.0071C42.5088 46.9956 42.5317 46.9754 42.5605 46.9465C42.8537 46.6812 43.1354 46.4186 43.4056 46.1591C43.6815 45.8994 43.9488 45.6283 44.2075 45.3456C44.2822 45.2591 44.3598 45.1639 44.4404 45.06C44.5265 44.9563 44.6128 44.8524 44.699 44.7486C44.791 44.6389 44.883 44.5293 44.9749 44.4197C45.0727 44.3101 45.1675 44.2092 45.2595 44.1168C45.2825 44.0937 45.3142 44.0822 45.3544 44.0822C45.4061 44.0822 45.4406 44.1168 45.4578 44.186L45.3544 46.0899C45.3544 46.1995 45.3774 46.2542 45.4233 46.2542L47.6481 46.0899C47.6999 46.0899 47.74 46.1042 47.7688 46.1331C47.7976 46.1619 47.8177 46.1995 47.8292 46.2456C47.8407 46.286 47.8465 46.3292 47.8465 46.3754C47.8522 46.4215 47.8551 46.462 47.8551 46.4965C47.8551 46.6523 47.835 46.7677 47.7947 46.8427C47.7544 46.9119 47.6424 46.9465 47.4584 46.9465H45.3802C45.3342 46.9465 45.2998 46.9754 45.2767 47.0331C45.2653 47.0561 45.2595 47.0821 45.2595 47.1109V51.8877C45.2595 52.0896 45.3055 52.303 45.3975 52.5281C45.4952 52.7531 45.6447 52.9664 45.8459 53.1684C45.9378 53.2607 46.0586 53.3386 46.208 53.402C46.3575 53.4655 46.5013 53.4972 46.6392 53.4972C46.9497 53.4972 47.1968 53.4597 47.3808 53.3847C47.5648 53.304 47.7143 53.203 47.8292 53.0819C47.9499 52.9607 48.0477 52.8309 48.1224 52.6924C48.1971 52.5482 48.2834 52.4126 48.3811 52.2857C48.4041 52.228 48.4299 52.1992 48.4587 52.1992C48.4874 52.1992 48.5046 52.2193 48.5104 52.2597C48.5219 52.2944 48.5277 52.3232 48.5277 52.3463C48.5277 52.479 48.4845 52.6377 48.3983 52.8223C48.3178 53.0011 48.2086 53.1828 48.0706 53.3674C47.9385 53.5462 47.789 53.7107 47.6223 53.8607C47.4555 54.0049 47.2917 54.1087 47.1307 54.1722C46.8433 54.2933 46.5386 54.3539 46.2167 54.3539C45.8487 54.3539 45.5182 54.279 45.225 54.1289C44.9376 53.9789 44.6932 53.7886 44.4921 53.5578C44.2909 53.3212 44.1356 53.0617 44.0264 52.779C43.9229 52.4905 43.8712 52.2107 43.8712 51.9396ZM55.4434 54.2068C55.4434 54.0395 55.4606 53.8318 55.4951 53.5838C55.5296 53.3357 55.5469 53.0934 55.5469 52.8568C55.5469 52.8165 55.5382 52.7674 55.521 52.7097C55.5095 52.6463 55.4779 52.6146 55.4261 52.6146C55.4031 52.6146 55.3744 52.6463 55.3399 52.7097C55.3112 52.7674 55.2709 52.828 55.2192 52.8915C55.0352 53.0992 54.8512 53.2953 54.6673 53.4799C54.4834 53.6588 54.2879 53.8174 54.0809 53.9559C53.874 54.0943 53.6498 54.2039 53.4083 54.2847C53.1669 54.3597 52.8995 54.3972 52.6064 54.3972C52.3247 54.3972 52.0545 54.351 51.7958 54.2587C51.5371 54.1607 51.2956 54.0136 51.0714 53.8174C50.9278 53.702 50.8099 53.5779 50.7179 53.4453C50.6317 53.3069 50.5627 53.1626 50.511 53.0126C50.465 52.8627 50.4334 52.704 50.4161 52.5367C50.3989 52.3694 50.3902 52.1963 50.3902 52.0175V46.9119C50.3902 46.8254 50.3816 46.7475 50.3644 46.6783C50.3529 46.6033 50.3011 46.5658 50.2092 46.5658H48.8639C48.8122 46.5658 48.7691 46.5427 48.7346 46.4965C48.7001 46.4504 48.6829 46.4043 48.6829 46.3581C48.6829 46.335 48.6887 46.2917 48.7001 46.2283C48.7174 46.1648 48.7576 46.1331 48.8208 46.1331H51.6665C51.7584 46.1331 51.8044 46.1735 51.8044 46.2542V51.5675C51.8044 51.7867 51.836 52.003 51.8993 52.2165C51.9683 52.43 52.066 52.6203 52.1925 52.7876C52.3189 52.9549 52.4742 53.0905 52.6581 53.1943C52.8479 53.2982 53.0662 53.3501 53.3135 53.3501C53.5951 53.3501 53.8395 53.3242 54.0465 53.2722C54.2533 53.2145 54.466 53.1251 54.6845 53.004C54.926 52.8597 55.1387 52.652 55.3227 52.3809C55.3916 52.2829 55.4463 52.1905 55.4865 52.104C55.5267 52.0175 55.5583 51.9309 55.5814 51.8444C55.6043 51.7579 55.6216 51.6655 55.6331 51.5675C55.6446 51.4694 55.6503 51.3598 55.6503 51.2387L55.7452 46.9465C55.7452 46.9292 55.7423 46.8946 55.7365 46.8427C55.7365 46.785 55.728 46.7244 55.7106 46.661C55.6992 46.5975 55.679 46.5427 55.6503 46.4965C55.6216 46.4446 55.5814 46.4186 55.5296 46.4186C55.4951 46.4186 55.4261 46.4245 55.3227 46.436C55.2249 46.4475 55.1099 46.4533 54.9778 46.4533C54.8512 46.4533 54.7305 46.4562 54.6155 46.462C54.5063 46.462 54.4201 46.462 54.3568 46.462C54.2361 46.462 54.1355 46.4562 54.055 46.4446C53.9746 46.4331 53.9343 46.3898 53.9343 46.3149C53.9343 46.2745 53.9372 46.2312 53.943 46.185C53.9487 46.1389 53.9717 46.1014 54.0119 46.0725C54.0637 46.0379 54.1212 46.0148 54.1844 46.0033C54.2533 45.9918 54.3195 45.986 54.3827 45.986C54.4632 45.986 54.5551 45.9918 54.6586 46.0033C54.7621 46.0148 54.8685 46.0263 54.9778 46.0379C55.087 46.0495 55.1904 46.061 55.2881 46.0725C55.3859 46.084 55.4721 46.0899 55.5469 46.0899H57.2025C57.2427 46.0899 57.2629 46.11 57.2629 46.1504L56.9955 52.9607V53.0819C56.9955 53.1107 56.9955 53.1337 56.9955 53.1511C56.9955 53.1684 57.0012 53.1915 57.0127 53.2203C57.0358 53.3184 57.076 53.4078 57.1335 53.4885C57.191 53.5693 57.2829 53.6098 57.4095 53.6098C57.4842 53.6098 57.5646 53.6039 57.6509 53.5924C57.7371 53.5809 57.8205 53.5664 57.9009 53.5491C57.9815 53.5319 58.0562 53.5174 58.1251 53.5059C58.1999 53.4943 58.2602 53.4885 58.3062 53.4885C58.3695 53.4885 58.4068 53.5117 58.4183 53.5578C58.4356 53.6039 58.4442 53.6443 58.4442 53.679C58.4442 53.7482 58.4183 53.803 58.3666 53.8433C58.3206 53.878 58.2717 53.9097 58.22 53.9385C58.0935 53.9789 57.9785 53.9991 57.8751 53.9991C57.8118 53.9991 57.7514 54.002 57.694 54.0078C57.6422 54.0078 57.5675 54.0136 57.4698 54.0251C57.2858 54.0481 57.0846 54.0857 56.8661 54.1376C56.6534 54.1895 56.4638 54.2414 56.297 54.2933C56.1763 54.3395 56.0642 54.377 55.9607 54.4058C55.8631 54.4405 55.7567 54.4578 55.6417 54.4578C55.5785 54.4578 55.5296 54.4318 55.4951 54.3799C55.4606 54.328 55.4434 54.2703 55.4434 54.2068ZM59.2547 50.4945C59.2662 50.0561 59.341 49.6464 59.4789 49.2656C59.617 48.8849 59.8038 48.5359 60.0395 48.2186C60.2752 47.9013 60.5483 47.6186 60.8586 47.3706C61.1748 47.1225 61.514 46.909 61.8762 46.7302C62.0601 46.6437 62.2671 46.5658 62.4971 46.4965C62.7327 46.4273 62.9598 46.3927 63.1783 46.3927C63.3393 46.3927 63.5289 46.4215 63.7474 46.4792C63.9658 46.5312 64.1728 46.5918 64.3682 46.661C64.5637 46.7244 64.7304 46.785 64.8684 46.8427C65.0064 46.8946 65.0782 46.9234 65.084 46.9292C65.0955 46.9407 65.1357 46.9465 65.2047 46.9465V44.3245C65.2047 44.0649 65.1989 43.8399 65.1875 43.6495C65.1817 43.4534 65.1559 43.2919 65.1099 43.165C65.0696 43.038 65.0006 42.9457 64.9029 42.8881C64.8051 42.8246 64.6672 42.7928 64.4889 42.7928C64.466 42.7928 64.4314 42.7986 64.3855 42.8102C64.3395 42.8159 64.2878 42.8274 64.2303 42.8447C64.1728 42.8563 64.1153 42.8679 64.0578 42.8794C64.0004 42.8851 63.9486 42.8881 63.9026 42.8881C63.8854 42.8881 63.8451 42.8851 63.7819 42.8794C63.7187 42.8736 63.6496 42.8621 63.5749 42.8447C63.506 42.8274 63.4427 42.8044 63.3852 42.7755C63.3335 42.7467 63.3076 42.7091 63.3076 42.6631C63.3076 42.6399 63.3162 42.6197 63.3335 42.6025C63.3565 42.5794 63.3881 42.5678 63.4284 42.5678C63.5663 42.5563 63.7215 42.5361 63.894 42.5073C64.0664 42.4726 64.2303 42.4409 64.3855 42.4121C64.5465 42.3775 64.6844 42.3457 64.7994 42.3169C64.9201 42.2881 64.9949 42.2679 65.0236 42.2563C65.2075 42.2217 65.3944 42.1813 65.5841 42.1352C65.7738 42.089 65.9606 42.0399 66.1446 41.9881C66.1733 41.9765 66.2107 41.9563 66.2567 41.9275C66.3084 41.8986 66.3602 41.8843 66.4119 41.8843C66.5039 41.8843 66.5815 41.9102 66.6448 41.9621C66.708 42.0082 66.7396 42.0516 66.7396 42.0919V53.6357C66.8546 53.6184 66.981 53.5981 67.119 53.5751C67.2627 53.5462 67.4035 53.5203 67.5415 53.4972C67.6852 53.4742 67.8203 53.454 67.9469 53.4366C68.079 53.4193 68.1883 53.4106 68.2745 53.4106C68.3378 53.4106 68.3722 53.428 68.3779 53.4626C68.3895 53.4915 68.3952 53.5203 68.3952 53.5491C68.3952 53.6299 68.3751 53.679 68.3348 53.6962C68.1796 53.7366 68.0474 53.7626 67.9382 53.7741C67.829 53.7799 67.7083 53.7943 67.576 53.8174C67.3806 53.852 67.1736 53.9039 66.9552 53.9732C66.7367 54.0424 66.5269 54.1145 66.3257 54.1895C66.0842 54.2818 65.883 54.3568 65.722 54.4145C65.5669 54.4722 65.4289 54.501 65.3082 54.501C65.1875 54.501 65.1271 54.4463 65.1271 54.3366C65.1271 54.2213 65.1385 54.1059 65.1616 53.9904C65.1903 53.8693 65.2047 53.7597 65.2047 53.6617C65.2047 53.6328 65.2018 53.5838 65.196 53.5145C65.1903 53.4395 65.1846 53.3905 65.1788 53.3674C65.1616 53.327 65.13 53.3069 65.084 53.3069C65.0552 53.3069 64.9805 53.3588 64.8598 53.4626C64.7448 53.5664 64.6125 53.6847 64.4631 53.8174C64.3137 53.9444 64.1613 54.0683 64.0061 54.1895C63.8566 54.3107 63.7302 54.3856 63.6267 54.4145C63.4772 54.4606 63.3191 54.4923 63.1524 54.5097C62.9914 54.527 62.8362 54.5357 62.6867 54.5357C62.1521 54.5357 61.6721 54.4203 61.2467 54.1895C60.8213 53.9529 60.4591 53.6443 60.1602 53.2635C59.867 52.8828 59.6428 52.453 59.4876 51.9742C59.3324 51.4896 59.2547 50.9963 59.2547 50.4945ZM65.2047 52.8309V48.0369C65.0322 48.0369 64.8425 47.9561 64.6356 47.7946C64.5206 47.6965 64.42 47.5869 64.3338 47.4658C64.2533 47.3446 64.1555 47.2321 64.0405 47.1282C63.9256 47.0186 63.779 46.9292 63.6008 46.86C63.4284 46.785 63.1926 46.7475 62.8937 46.7475C62.6407 46.7475 62.4165 46.8051 62.2211 46.9206C62.0256 47.0302 61.8532 47.1802 61.7038 47.3706C61.56 47.5552 61.4364 47.7686 61.3329 48.0109C61.2352 48.2474 61.1547 48.4926 61.0915 48.7465C61.0283 49.0003 60.9823 49.2484 60.9535 49.4906C60.9248 49.733 60.9104 49.9522 60.9104 50.1483C60.9104 50.3387 60.9104 50.532 60.9104 50.7281C60.9161 50.9184 60.9305 51.1059 60.9535 51.2906C60.9765 51.4752 61.0139 51.654 61.0656 51.8271C61.1174 51.9944 61.1892 52.1531 61.2812 52.303C61.4192 52.5281 61.5628 52.7386 61.7123 52.9347C61.8618 53.1309 62.0199 53.304 62.1866 53.454C62.3533 53.5981 62.5287 53.7135 62.7126 53.8001C62.9023 53.8808 63.1007 53.9212 63.3076 53.9212C63.3766 53.9212 63.4714 53.9068 63.5921 53.878C63.7129 53.8491 63.8422 53.8088 63.9802 53.7569C64.1239 53.7049 64.2676 53.6443 64.4114 53.5751C64.5551 53.5001 64.6844 53.4223 64.7994 53.3414C64.9201 53.2607 65.0178 53.1771 65.0925 53.0905C65.1673 53.004 65.2047 52.9174 65.2047 52.8309ZM68.8608 54.1895C68.8608 54.1607 68.8638 54.1174 68.8695 54.0597C68.881 53.9963 68.9183 53.9645 68.9816 53.9645H69.9819C70.0336 53.9645 70.0882 53.9472 70.1457 53.9126C70.2032 53.878 70.232 53.8318 70.232 53.7741V48.6513C70.232 48.3801 70.2233 48.1436 70.2061 47.9417C70.1888 47.7397 70.1342 47.5869 70.0422 47.483C70.002 47.4196 69.9618 47.3792 69.9215 47.3619C69.887 47.3446 69.8583 47.3302 69.8352 47.3187C69.8065 47.3071 69.7749 47.2985 69.7404 47.2927C69.7117 47.2869 69.6772 47.284 69.6369 47.284H69.4558C69.3409 47.284 69.2029 47.2869 69.0419 47.2927C68.881 47.2985 68.7459 47.3071 68.6367 47.3187C68.6137 47.3187 68.5878 47.3157 68.559 47.31C68.5303 47.2984 68.516 47.2812 68.516 47.258C68.516 47.1946 68.5274 47.1571 68.5505 47.1456C68.5792 47.134 68.6137 47.1167 68.6539 47.0937C68.8782 47.0186 69.1224 46.9552 69.3868 46.9032C69.6513 46.8456 69.9043 46.785 70.1457 46.7215C70.1629 46.7215 70.2003 46.7129 70.2578 46.6955C70.3211 46.6725 70.3843 46.6495 70.4475 46.6263C70.5165 46.6033 70.5826 46.5802 70.6458 46.5571C70.7091 46.5341 70.7551 46.5167 70.7838 46.5052C70.8586 46.4822 70.9333 46.4504 71.008 46.41C71.0885 46.3639 71.169 46.3206 71.2495 46.2802C71.3299 46.2398 71.4075 46.2052 71.4823 46.1764C71.5627 46.1476 71.6433 46.1331 71.7237 46.1331C71.7525 46.1331 71.7784 46.1476 71.8013 46.1764C71.83 46.2052 71.8444 46.2456 71.8444 46.2975V51.9136C71.8444 52.1213 71.8387 52.2944 71.8272 52.4328C71.8215 52.5655 71.8128 52.6895 71.8013 52.805C71.7899 52.9146 71.7784 53.027 71.7668 53.1424C71.7611 53.252 71.7582 53.3876 71.7582 53.5491C71.7582 53.7164 71.7755 53.829 71.81 53.8867C71.8502 53.9385 71.9623 53.9645 72.1462 53.9645C72.2095 53.9645 72.3072 53.9587 72.4395 53.9472C72.5717 53.9299 72.6837 53.9212 72.7757 53.9212C72.8217 53.9212 72.8706 53.927 72.9223 53.9385C72.9798 53.9444 73.0315 53.9587 73.0775 53.9818C73.1293 54.0049 73.1695 54.0366 73.1982 54.077C73.2328 54.1174 73.25 54.1693 73.25 54.2328C73.25 54.2732 73.2414 54.3078 73.2241 54.3366C73.2126 54.3654 73.181 54.3799 73.1293 54.3799C72.7096 54.3799 72.3303 54.3741 71.991 54.3626C71.6576 54.3568 71.3415 54.3539 71.0425 54.3539C70.5309 54.3539 70.1169 54.377 69.8008 54.4231C69.4846 54.4693 69.2604 54.4923 69.1282 54.4923C68.9499 54.4923 68.8608 54.3914 68.8608 54.1895ZM70.0422 42.8447C70.0422 42.689 70.071 42.5563 70.1285 42.4467C70.186 42.3313 70.2607 42.2391 70.3527 42.1698C70.4503 42.0948 70.5625 42.0429 70.6889 42.014C70.8155 41.9794 70.9476 41.9621 71.0857 41.9621C71.2121 41.9621 71.3328 41.9852 71.4478 42.0314C71.5627 42.0775 71.6633 42.141 71.7496 42.2217C71.8359 42.3025 71.9019 42.3977 71.9479 42.5073C71.9996 42.6169 72.0255 42.7323 72.0255 42.8534C72.0255 43.0092 71.9996 43.1448 71.9479 43.2601C71.8962 43.3697 71.8243 43.4592 71.7324 43.5284C71.6404 43.5977 71.5311 43.6495 71.4047 43.6841C71.284 43.713 71.1517 43.7274 71.008 43.7274C70.7091 43.7274 70.4734 43.6582 70.3009 43.5198C70.1285 43.3813 70.0422 43.1563 70.0422 42.8447ZM73.9226 50.3128C73.9226 49.7013 74.0232 49.1532 74.2244 48.6686C74.4314 48.1782 74.716 47.7629 75.0781 47.4225C75.4403 47.0821 75.8714 46.8196 76.3716 46.635C76.8717 46.4504 77.4207 46.3581 78.0185 46.3581C78.1508 46.3581 78.2888 46.3725 78.4325 46.4013C78.5762 46.4302 78.7199 46.4706 78.8636 46.5225C79.0131 46.5686 79.1568 46.6235 79.2948 46.6869C79.4385 46.7504 79.5707 46.8168 79.6914 46.886C80.3755 47.2667 80.8843 47.7599 81.2178 48.3657C81.5569 48.9714 81.7265 49.6638 81.7265 50.4426C81.7265 50.9675 81.6345 51.4723 81.4505 51.9569C81.2723 52.4357 80.9993 52.8713 80.6314 53.2635C80.2634 53.6443 79.8438 53.9212 79.3724 54.0943C78.901 54.2673 78.4066 54.3539 77.8892 54.3539C77.5098 54.3539 77.1362 54.3193 76.7682 54.2501C76.406 54.1809 76.0439 54.0164 75.6817 53.7569C75.0781 53.3184 74.6326 52.8193 74.3452 52.2597C74.0634 51.7002 73.9226 51.0512 73.9226 50.3128ZM75.3972 50.356C75.3972 50.5868 75.4172 50.8348 75.4575 51.1002C75.4978 51.3656 75.5582 51.6338 75.6386 51.9049C75.7249 52.1703 75.8312 52.43 75.9576 52.6838C76.0899 52.9319 76.245 53.1539 76.4233 53.3501C76.6015 53.5405 76.8085 53.6934 77.0442 53.8088C77.2798 53.9242 77.5414 53.9818 77.8289 53.9818C78.0128 53.9818 78.1738 53.9645 78.3117 53.9299C78.4497 53.8895 78.5733 53.8347 78.6826 53.7654C78.7975 53.6962 78.901 53.6155 78.993 53.5232C79.0907 53.4251 79.1855 53.3184 79.2775 53.203C79.4385 52.9953 79.5764 52.7674 79.6914 52.5194C79.8065 52.2713 79.9013 52.0175 79.976 51.7579C80.0507 51.4982 80.1024 51.2415 80.1312 50.9877C80.1658 50.7281 80.183 50.4829 80.183 50.2522C80.183 50.0329 80.1599 49.7907 80.114 49.5253C80.068 49.2541 79.9932 48.983 79.8898 48.7118C79.7921 48.4349 79.6655 48.1667 79.5104 47.907C79.3552 47.6475 79.1683 47.4167 78.9499 47.2148C78.7831 47.0533 78.605 46.935 78.4152 46.86C78.2255 46.785 78.0703 46.7475 77.9496 46.7475C77.6794 46.7475 77.4437 46.7764 77.2425 46.834C77.0412 46.886 76.8631 46.9667 76.7078 47.0763C76.5527 47.1859 76.4089 47.3244 76.2767 47.4917C76.1502 47.659 76.0209 47.8551 75.8887 48.0801C75.6645 48.4609 75.5265 48.8388 75.4748 49.2137C75.4231 49.5887 75.3972 49.9695 75.3972 50.356Z" fill="#B44040"/>
</svg>
