<svg width="33" height="33" viewBox="0 0 33 33" fill="none" xmlns="http://www.w3.org/2000/svg">
<path d="M19.9479 7.29183C21.3723 7.56974 22.6814 8.26637 23.7076 9.29257C24.7338 10.3188 25.4304 11.6278 25.7083 13.0522L19.9479 7.29183ZM19.9479 1.4585C22.9073 1.78726 25.6669 3.1125 27.7737 5.21663C29.8805 7.32076 31.2092 10.0787 31.5417 13.0377L19.9479 1.4585ZM30.0833 24.6752V29.0502C30.085 29.4563 30.0018 29.8583 29.8391 30.2305C29.6764 30.6026 29.4377 30.9366 29.1385 31.2112C28.8392 31.4858 28.4858 31.6948 28.1011 31.8249C27.7164 31.9551 27.3087 32.0034 26.9042 31.9668C22.4166 31.4792 18.106 29.9458 14.3188 27.4897C10.7952 25.2507 7.80779 22.2633 5.56875 18.7397C3.10414 14.9353 1.57036 10.6037 1.09167 6.096C1.05523 5.69272 1.10316 5.28627 1.2324 4.90253C1.36165 4.51879 1.56938 4.16617 1.84237 3.86711C2.11536 3.56805 2.44764 3.32911 2.81803 3.16551C3.18843 3.0019 3.58883 2.91721 3.99375 2.91683H8.36875C9.07649 2.90986 9.76262 3.16049 10.2992 3.62198C10.8359 4.08348 11.1864 4.72436 11.2854 5.42516C11.4701 6.82526 11.8125 8.19997 12.3063 9.52308C12.5025 10.0451 12.5449 10.6123 12.4286 11.1577C12.3123 11.7031 12.0421 12.2037 11.65 12.6002L9.79792 14.4522C11.8739 18.1033 14.8969 21.1262 18.5479 23.2022L20.4 21.3502C20.7965 20.9581 21.2971 20.6879 21.8425 20.5716C22.3878 20.4552 22.9551 20.4977 23.4771 20.6939C24.8002 21.1876 26.1749 21.5301 27.575 21.7147C28.2834 21.8147 28.9304 22.1715 29.3929 22.7173C29.8553 23.2632 30.1011 23.96 30.0833 24.6752Z" stroke="#E3D5D5" stroke-width="2" stroke-linecap="round" stroke-linejoin="round"/>
</svg>
