<svg width="28" height="27" viewBox="0 0 28 27" fill="none" xmlns="http://www.w3.org/2000/svg">
<path d="M13.5403 0C6.07534 0 0.027832 6.04277 0.027832 13.5C0.027832 20.9572 6.07621 27 13.5403 27C21.0054 27 27.0529 20.9572 27.0529 13.5C27.0529 6.04277 21.0045 0 13.5403 0ZM20.1772 9.24881L17.9594 19.69C17.7955 20.4303 17.3544 20.6097 16.7389 20.2613L13.3608 17.7738L11.7314 19.3416C11.5518 19.521 11.3993 19.6734 11.0506 19.6734L11.2903 16.2383L17.5505 10.5875C17.8234 10.348 17.4904 10.2121 17.1303 10.4516L9.39331 15.3177L6.05877 14.2778C5.33433 14.0496 5.31776 13.554 6.21133 13.2056L19.2391 8.18623C19.8441 7.96848 20.3724 8.33342 20.1763 9.24794L20.1772 9.24881Z" fill="#E3D5D5"/>
</svg>
