<svg width="28" height="27" viewBox="0 0 28 27" fill="none" xmlns="http://www.w3.org/2000/svg">
<path d="M27.4041 2.376V24.624C27.4041 25.272 27.1698 25.83 26.7014 26.298C26.233 26.766 25.6744 27 25.0258 27H2.75723C2.10863 27 1.55011 26.766 1.08168 26.298C0.613245 25.83 0.379028 25.272 0.379028 24.624V2.376C0.379028 1.728 0.613245 1.17 1.08168 0.702C1.55011 0.234 2.10863 0 2.75723 0H25.0258C25.6744 0 26.233 0.234 26.7014 0.702C27.1698 1.17 27.4041 1.728 27.4041 2.376ZM20.918 16.632C20.918 15.588 20.6298 14.7285 20.0532 14.0535C19.4767 13.3785 18.657 12.933 17.594 12.717V12.636C18.2966 12.348 18.8461 11.889 19.2425 11.259C19.6389 10.629 19.837 9.927 19.837 9.153C19.837 8.325 19.6614 7.6455 19.3101 7.1145C18.9587 6.5835 18.4588 6.201 17.8102 5.967C17.1616 5.733 16.5445 5.58 15.959 5.508C15.3734 5.436 14.6753 5.4 13.8645 5.4H7.94603V21.6H14.432C15.2788 21.6 16.0716 21.5145 16.8102 21.3435C17.5489 21.1725 18.2336 20.907 18.8641 20.547C19.4947 20.187 19.9947 19.6695 20.364 18.9945C20.7334 18.3195 20.918 17.532 20.918 16.632ZM15.7022 9.99C15.7022 10.35 15.6392 10.647 15.513 10.881C15.3869 11.115 15.2473 11.295 15.0942 11.421C14.941 11.547 14.7068 11.637 14.3915 11.691C14.0762 11.745 13.8285 11.7765 13.6483 11.7855C13.4681 11.7945 13.1889 11.799 12.8105 11.799H11.9998V8.37H13.0538C13.3781 8.37 13.6258 8.3745 13.797 8.3835C13.9681 8.3925 14.1978 8.424 14.4861 8.478C14.7744 8.532 14.9906 8.613 15.1347 8.721C15.2788 8.829 15.4094 8.991 15.5266 9.207C15.6437 9.423 15.7022 9.684 15.7022 9.99ZM16.7292 16.551C16.7292 16.767 16.7021 16.9695 16.6481 17.1585C16.594 17.3475 16.531 17.5095 16.4589 17.6445C16.3869 17.7795 16.2742 17.901 16.1211 18.009C15.968 18.117 15.8373 18.207 15.7292 18.279C15.6211 18.351 15.459 18.4095 15.2428 18.4545C15.0266 18.4995 14.8599 18.5355 14.7428 18.5625C14.6257 18.5895 14.4365 18.6075 14.1753 18.6165C13.9141 18.6255 13.7339 18.63 13.6348 18.63H11.9998V14.58H14.0672L14.6888 14.607L15.3509 14.7015L15.8644 14.9175L16.3508 15.2685L16.6076 15.795L16.7292 16.551Z" fill="#E3D5D5"/>
</svg>
