<svg width="28" height="27" viewBox="0 0 28 27" fill="none" xmlns="http://www.w3.org/2000/svg">
<path d="M19.7735 16.1806C19.4348 16.0093 17.7855 15.2052 17.4772 15.0905C17.169 14.9808 16.9452 14.9234 16.7205 15.2617C16.5009 15.5917 15.854 16.3468 15.6564 16.567C15.4588 16.7873 15.2646 16.8041 14.931 16.6548C14.5923 16.4835 13.5105 16.1317 12.2259 14.9808C11.2226 14.0889 10.5546 12.9904 10.3561 12.652C10.1585 12.3179 10.3342 12.1289 10.5014 11.9618C10.6551 11.8083 10.84 11.5754 11.0115 11.3729C11.1745 11.1704 11.2268 11.0346 11.3459 10.8152C11.4557 10.5781 11.3991 10.3933 11.3155 10.2262C11.2319 10.0592 10.5588 8.40291 10.2776 7.74309C10.009 7.08834 9.7278 7.17188 9.52089 7.17188C9.32749 7.15416 9.10285 7.15416 8.87905 7.15416C8.65524 7.15416 8.28956 7.23769 7.98131 7.55831C7.67305 7.89666 6.80234 8.70497 6.80234 10.3402C6.80234 11.9796 8.00749 13.5658 8.17471 13.8029C8.34614 14.0223 10.5453 17.3973 13.9192 18.8477C14.7241 19.186 15.349 19.3885 15.8371 19.5556C16.642 19.8104 17.3767 19.775 17.9569 19.6914C18.5988 19.586 19.9449 18.8781 20.227 18.0875C20.5133 17.2918 20.5133 16.6328 20.4297 16.4835C20.3461 16.3299 20.1265 16.2464 19.7879 16.0971L19.7735 16.1806ZM13.6549 24.4688H13.6371C11.6398 24.4688 9.6653 23.9279 7.94077 22.9171L7.53624 22.6758L3.31358 23.7743L4.44863 19.6695L4.17585 19.2476C3.06061 17.476 2.46896 15.4258 2.46905 13.3329C2.46905 7.20731 7.4881 2.21062 13.6633 2.21062C16.6547 2.21062 19.461 3.375 21.5724 5.48438C22.6139 6.51256 23.4401 7.73768 24.0027 9.08825C24.5653 10.4388 24.853 11.8878 24.8491 13.3507C24.8407 19.4721 19.8259 24.4688 13.6591 24.4688H13.6549ZM23.1778 3.88041C20.6087 1.40147 17.2306 0 13.6371 0C6.22553 0 0.1905 6.00328 0.186277 13.381C0.186277 15.7368 0.801941 18.0352 1.98091 20.0694L0.0722656 27L7.20687 25.1412C9.18334 26.2058 11.3926 26.7658 13.638 26.7713H13.6422C21.058 26.7713 27.0931 20.7681 27.0973 13.3853C27.0973 9.81281 25.703 6.45047 23.1609 3.92344L23.1778 3.88041Z" fill="#E3D5D5"/>
</svg>
